<svg width="103" height="36" viewBox="0 0 103 36" fill="none" xmlns="http://www.w3.org/2000/svg">
<path d="M16.5909 0.0909081H20.8182V25.0455C20.8182 27.2727 20.4091 29.1648 19.5909 30.7216C18.7727 32.2784 17.6193 33.4602 16.1307 34.267C14.642 35.0739 12.8864 35.4773 10.8636 35.4773C8.95455 35.4773 7.25568 35.1307 5.76705 34.4375C4.27841 33.733 3.10795 32.733 2.25568 31.4375C1.40341 30.142 0.977273 28.6023 0.977273 26.8182H5.13636C5.13636 27.8068 5.38068 28.6705 5.86932 29.4091C6.36932 30.1364 7.05114 30.7045 7.91477 31.1136C8.77841 31.5227 9.76136 31.7273 10.8636 31.7273C12.0795 31.7273 13.1136 31.4716 13.9659 30.9602C14.8182 30.4489 15.4659 29.6989 15.9091 28.7102C16.3636 27.7102 16.5909 26.4886 16.5909 25.0455V0.0909081ZM39.3807 35.5455C37.017 35.5455 34.9432 34.983 33.1591 33.858C31.3864 32.733 30 31.1591 29 29.1364C28.0114 27.1136 27.517 24.75 27.517 22.0455C27.517 19.3182 28.0114 16.9375 29 14.9034C30 12.8693 31.3864 11.2898 33.1591 10.1648C34.9432 9.03977 37.017 8.47727 39.3807 8.47727C41.7443 8.47727 43.8125 9.03977 45.5852 10.1648C47.3693 11.2898 48.7557 12.8693 49.7443 14.9034C50.7443 16.9375 51.2443 19.3182 51.2443 22.0455C51.2443 24.75 50.7443 27.1136 49.7443 29.1364C48.7557 31.1591 47.3693 32.733 45.5852 33.858C43.8125 34.983 41.7443 35.5455 39.3807 35.5455ZM39.3807 31.9318C41.1761 31.9318 42.6534 31.4716 43.8125 30.5511C44.9716 29.6307 45.8295 28.4205 46.3864 26.9205C46.9432 25.4205 47.2216 23.7955 47.2216 22.0455C47.2216 20.2955 46.9432 18.6648 46.3864 17.1534C45.8295 15.642 44.9716 14.4205 43.8125 13.4886C42.6534 12.5568 41.1761 12.0909 39.3807 12.0909C37.5852 12.0909 36.108 12.5568 34.9489 13.4886C33.7898 14.4205 32.9318 15.642 32.375 17.1534C31.8182 18.6648 31.5398 20.2955 31.5398 22.0455C31.5398 23.7955 31.8182 25.4205 32.375 26.9205C32.9318 28.4205 33.7898 29.6307 34.9489 30.5511C36.108 31.4716 37.5852 31.9318 39.3807 31.9318ZM61.1349 25.4545L61.0668 20.4773H61.8849L73.3395 8.81818H78.3168L66.1122 21.1591H65.7713L61.1349 25.4545ZM57.3849 35V0.0909081H61.4077V35H57.3849ZM74.0213 35L63.794 22.0455L66.6577 19.25L79.1349 35H74.0213ZM102.04 14.6818L98.4261 15.7045C98.1989 15.1023 97.8636 14.517 97.4205 13.9489C96.9886 13.3693 96.3977 12.892 95.6477 12.517C94.8977 12.142 93.9375 11.9545 92.767 11.9545C91.1648 11.9545 89.8295 12.3239 88.7614 13.0625C87.7045 13.7898 87.1761 14.7159 87.1761 15.8409C87.1761 16.8409 87.5398 17.6307 88.267 18.2102C88.9943 18.7898 90.1307 19.2727 91.6761 19.6591L95.5625 20.6136C97.9034 21.1818 99.6477 22.0511 100.795 23.2216C101.943 24.3807 102.517 25.875 102.517 27.7045C102.517 29.2045 102.085 30.5455 101.222 31.7273C100.369 32.9091 99.1761 33.8409 97.642 34.5227C96.108 35.2045 94.3239 35.5455 92.2898 35.5455C89.6193 35.5455 87.4091 34.9659 85.6591 33.8068C83.9091 32.6477 82.8011 30.9545 82.3352 28.7273L86.1534 27.7727C86.517 29.1818 87.2045 30.2386 88.2159 30.9432C89.2386 31.6477 90.5739 32 92.2216 32C94.0966 32 95.5852 31.6023 96.6875 30.8068C97.8011 30 98.358 29.0341 98.358 27.9091C98.358 27 98.0398 26.2386 97.4034 25.625C96.767 25 95.7898 24.5341 94.4716 24.2273L90.108 23.2045C87.7102 22.6364 85.9489 21.7557 84.8239 20.5625C83.7102 19.358 83.1534 17.8523 83.1534 16.0455C83.1534 14.5682 83.5682 13.2614 84.3977 12.125C85.2386 10.9886 86.3807 10.0966 87.8239 9.44886C89.2784 8.80114 90.9261 8.47727 92.767 8.47727C95.358 8.47727 97.392 9.04545 98.8693 10.1818C100.358 11.3182 101.415 12.8182 102.04 14.6818Z" fill="#ECDFCC"/>
</svg>
